<svg xmlns="http://www.w3.org/2000/svg" xmlns:xlink="http://www.w3.org/1999/xlink" width="500" zoomAndPan="magnify" viewBox="0 0 375 160.499995" height="214" preserveAspectRatio="xMidYMid meet" version="1.0"><defs><g/><clipPath id="3c52a4c4ac"><path d="M 38.40625 40.546875 L 115.417969 40.546875 L 115.417969 119.796875 L 38.40625 119.796875 Z M 38.40625 40.546875 " clip-rule="nonzero"/></clipPath></defs><path fill="#004aad" d="M 97.691406 111.398438 C 97.617188 111.375 97.566406 111.292969 97.578125 111.214844 C 97.65625 111.242188 97.707031 111.328125 97.699219 111.410156 Z M 97.691406 111.398438 " fill-opacity="1" fill-rule="nonzero"/><path fill="#004aad" d="M 44.023438 102.683594 C 44.214844 89.277344 44.402344 75.871094 44.59375 62.46875 C 44.59375 62.335938 44.597656 62.195312 44.679688 62.09375 C 44.789062 61.957031 44.988281 61.945312 45.160156 61.941406 C 66.03125 61.71875 86.902344 61.496094 107.773438 61.273438 C 107.96875 61.269531 108.179688 61.277344 108.320312 61.40625 C 108.484375 61.558594 108.480469 61.8125 108.464844 62.035156 C 107.550781 75.894531 106.632812 89.753906 105.71875 103.613281 C 105.699219 103.851562 105.671875 104.113281 105.492188 104.273438 C 105.324219 104.421875 105.078125 104.425781 104.855469 104.421875 C 84.84375 104.125 64.832031 103.828125 44.820312 103.53125 C 44.601562 103.527344 44.363281 103.515625 44.207031 103.367188 C 44.03125 103.199219 44.019531 102.925781 44.023438 102.683594 M 105.011719 103.832031 C 105.964844 89.859375 106.917969 75.882812 107.875 61.910156 C 86.914062 62.132812 65.953125 62.355469 44.992188 62.578125 C 45.292969 64.53125 45.257812 66.523438 45.222656 68.5 C 45.015625 79.964844 44.804688 91.429688 44.597656 102.894531 C 64.734375 103.207031 84.875 103.519531 105.011719 103.832031 Z M 105.011719 103.832031 " fill-opacity="1" fill-rule="nonzero"/><path fill="#004aad" d="M 109.710938 65.695312 C 110.113281 65.324219 110.636719 65.074219 111.179688 65.039062 C 111.726562 65.007812 112.289062 65.207031 112.65625 65.613281 C 113.054688 66.054688 113.1875 66.703125 113.050781 67.28125 C 112.914062 67.859375 112.53125 68.363281 112.042969 68.707031 C 111.285156 69.242188 110.152344 69.347656 109.464844 68.722656 C 109.042969 68.339844 108.851562 67.734375 108.917969 67.167969 C 108.984375 66.601562 109.289062 66.078125 109.710938 65.695312 M 112.371094 66.226562 C 112.1875 65.816406 111.707031 65.597656 111.257812 65.636719 C 110.8125 65.675781 110.410156 65.933594 110.101562 66.261719 C 109.832031 66.546875 109.617188 66.90625 109.585938 67.300781 C 109.574219 67.460938 109.589844 67.621094 109.609375 67.78125 C 109.625 67.902344 109.640625 68.03125 109.707031 68.136719 C 109.800781 68.28125 109.972656 68.351562 110.132812 68.414062 C 110.324219 68.488281 110.519531 68.5625 110.722656 68.554688 C 110.796875 68.550781 110.871094 68.539062 110.941406 68.519531 C 111.664062 68.339844 112.261719 67.726562 112.417969 67 C 112.472656 66.742188 112.476562 66.464844 112.371094 66.226562 Z M 112.371094 66.226562 " fill-opacity="1" fill-rule="nonzero"/><g clip-path="url(#3c52a4c4ac)"><path fill="#004aad" d="M 102.722656 116.511719 C 101.589844 114.089844 100.460938 111.671875 99.328125 109.25 C 85.292969 109.585938 71.257812 109.921875 57.226562 110.261719 C 56.265625 110.28125 55.179688 110.367188 54.582031 111.117188 C 52.753906 113.417969 50.925781 115.71875 49.097656 118.015625 C 48.53125 118.730469 47.878906 119.496094 46.980469 119.644531 C 46.082031 119.789062 45.039062 118.851562 45.457031 118.042969 C 46.796875 115.449219 48.136719 112.851562 49.480469 110.257812 C 47.585938 110.707031 45.644531 111.160156 43.710938 110.945312 C 41.773438 110.730469 39.8125 109.714844 38.996094 107.945312 C 38.40625 106.671875 38.476562 105.207031 38.558594 103.8125 C 39.34375 90.269531 40.132812 76.726562 40.917969 63.1875 C 41.027344 61.296875 41.253906 59.167969 42.730469 57.992188 C 43.894531 57.066406 45.5 57.007812 46.984375 56.988281 C 57.039062 56.871094 67.097656 56.757812 77.152344 56.640625 C 74.628906 53.730469 72.105469 50.824219 69.582031 47.917969 C 67.949219 46.035156 66.234375 44.089844 63.9375 43.132812 C 63.320312 42.875 63.761719 41.800781 64.429688 41.769531 C 65.097656 41.742188 65.628906 42.296875 66.066406 42.800781 C 69.941406 47.316406 73.820312 51.828125 77.699219 56.34375 C 81.117188 52.953125 84.535156 49.5625 87.953125 46.171875 C 89.1875 44.945312 90.472656 43.640625 90.933594 41.960938 C 91.21875 40.917969 92.800781 40.550781 93.511719 41.363281 C 94.226562 42.175781 93.664062 43.699219 92.597656 43.851562 C 90.765625 44.113281 89.328125 45.503906 88.027344 46.824219 C 84.828125 50.074219 81.628906 53.320312 78.425781 56.570312 C 88.574219 56.441406 98.71875 56.3125 108.867188 56.1875 C 110.90625 56.160156 113.261719 56.277344 114.5 57.902344 C 115.417969 59.105469 115.40625 60.75 115.351562 62.261719 C 114.871094 75.859375 114.390625 89.460938 113.914062 103.058594 C 113.855469 104.707031 113.75 106.488281 112.703125 107.765625 C 111.308594 109.46875 108.777344 109.632812 106.59375 109.363281 C 104.410156 109.09375 102.132812 108.539062 100.0625 109.285156 C 101.214844 111.78125 102.363281 114.28125 103.511719 116.777344 C 102.90625 117.371094 101.882812 117.328125 101.144531 116.910156 C 100.40625 116.492188 99.886719 115.78125 99.386719 115.09375 C 98.074219 113.28125 96.765625 111.46875 95.453125 109.652344 C 97.023438 111.40625 98.589844 113.15625 100.160156 114.910156 C 100.855469 115.683594 101.683594 116.523438 102.722656 116.511719 M 113.910156 58.132812 C 112.859375 56.867188 110.984375 56.789062 109.339844 56.808594 C 88.515625 57.085938 67.6875 57.363281 46.859375 57.640625 C 45.320312 57.664062 43.59375 57.765625 42.574219 58.917969 C 41.753906 59.847656 41.644531 61.183594 41.574219 62.417969 C 40.777344 76.488281 39.980469 90.554688 39.183594 104.621094 C 39.082031 106.441406 39.179688 108.65625 40.769531 109.546875 C 41.523438 109.96875 42.4375 109.960938 43.304688 109.941406 C 62.21875 109.527344 81.132812 109.109375 100.046875 108.691406 C 102.714844 108.632812 105.386719 108.574219 108.054688 108.515625 C 109.269531 108.488281 110.566406 108.433594 111.550781 107.726562 C 113.058594 106.644531 113.261719 104.519531 113.324219 102.660156 C 113.789062 89.105469 114.253906 75.550781 114.722656 61.996094 C 114.765625 60.648438 114.769531 59.167969 113.910156 58.132812 M 45.820312 118.824219 C 46.417969 118.761719 47.015625 118.695312 47.609375 118.632812 C 47.796875 118.613281 47.9375 118.453125 48.054688 118.308594 C 50.195312 115.667969 52.335938 113.027344 54.476562 110.386719 C 53.246094 110.394531 52.015625 110.398438 50.785156 110.40625 C 50.628906 110.410156 50.460938 110.410156 50.324219 110.496094 C 50.191406 110.578125 50.109375 110.722656 50.035156 110.859375 C 48.632812 113.515625 47.226562 116.171875 45.820312 118.824219 M 92.910156 41.511719 C 92.644531 41.351562 92.304688 41.4375 92.015625 41.550781 C 91.816406 41.625 91.609375 41.726562 91.507812 41.914062 C 91.390625 42.136719 91.269531 42.363281 91.21875 42.609375 C 91.167969 42.855469 91.195312 43.128906 91.351562 43.328125 C 91.570312 43.609375 92 43.660156 92.324219 43.511719 C 92.648438 43.367188 92.882812 43.066406 93.039062 42.746094 C 93.140625 42.542969 93.21875 42.320312 93.214844 42.09375 C 93.207031 41.863281 93.101562 41.628906 92.910156 41.511719 M 64.570312 42.996094 C 64.71875 43.101562 64.945312 43.078125 65.066406 42.941406 C 65.140625 42.855469 65.179688 42.726562 65.28125 42.671875 C 65.457031 42.574219 65.453125 42.285156 65.300781 42.148438 C 65.148438 42.015625 64.90625 42.023438 64.726562 42.117188 C 64.566406 42.199219 64.4375 42.347656 64.398438 42.519531 C 64.359375 42.695312 64.421875 42.894531 64.570312 42.996094 Z M 64.570312 42.996094 " fill-opacity="1" fill-rule="nonzero"/></g><path fill="#004aad" d="M 108.527344 74.511719 C 108.328125 73.992188 108.421875 73.390625 108.695312 72.90625 C 109.0625 72.261719 109.746094 71.8125 110.484375 71.738281 C 111.121094 71.671875 111.804688 71.902344 112.191406 72.414062 C 112.511719 72.835938 112.59375 73.417969 112.453125 73.929688 C 112.3125 74.445312 111.960938 74.886719 111.523438 75.1875 C 111.035156 75.515625 110.425781 75.675781 109.847656 75.566406 C 109.269531 75.457031 108.742188 75.0625 108.527344 74.511719 M 111.691406 74.019531 C 111.769531 73.886719 111.832031 73.746094 111.859375 73.59375 C 111.945312 73.078125 111.53125 72.5625 111.023438 72.433594 C 110.515625 72.308594 109.964844 72.519531 109.578125 72.871094 C 109.296875 73.125 109.074219 73.476562 109.078125 73.859375 C 109.085938 74.449219 109.675781 74.929688 110.265625 74.929688 C 110.855469 74.929688 111.394531 74.53125 111.691406 74.019531 Z M 111.691406 74.019531 " fill-opacity="1" fill-rule="nonzero"/><path fill="#004aad" d="M 112.265625 78.566406 C 112.320312 78.703125 112.214844 78.863281 112.082031 78.925781 C 111.945312 78.988281 111.789062 78.980469 111.644531 78.972656 C 110.855469 78.917969 110.070312 78.867188 109.28125 78.816406 C 109.160156 78.808594 109.035156 78.800781 108.925781 78.746094 C 108.816406 78.6875 108.726562 78.574219 108.742188 78.453125 C 108.769531 78.226562 109.070312 78.175781 109.296875 78.191406 C 110.144531 78.234375 110.992188 78.292969 111.835938 78.355469 C 112.003906 78.371094 112.207031 78.40625 112.265625 78.566406 Z M 112.265625 78.566406 " fill-opacity="1" fill-rule="nonzero"/><path fill="#004aad" d="M 108.820312 91.832031 C 108.808594 90.960938 108.796875 90.089844 108.785156 89.222656 C 108.785156 89.105469 108.785156 88.988281 108.828125 88.882812 C 108.871094 88.773438 108.96875 88.679688 109.082031 88.679688 C 109.269531 88.675781 109.386719 88.898438 109.566406 88.941406 C 109.640625 88.960938 109.71875 88.949219 109.792969 88.9375 C 110.242188 88.859375 110.691406 88.785156 111.140625 88.710938 C 111.328125 88.675781 111.550781 88.65625 111.6875 88.792969 C 111.800781 88.910156 111.800781 89.09375 111.796875 89.257812 C 111.765625 90.085938 111.738281 90.914062 111.707031 91.742188 C 111.699219 91.945312 111.679688 92.175781 111.523438 92.304688 C 111.402344 92.402344 111.242188 92.414062 111.089844 92.421875 C 110.539062 92.453125 109.988281 92.480469 109.4375 92.507812 C 109.304688 92.515625 109.164062 92.519531 109.046875 92.453125 C 108.851562 92.335938 108.824219 92.0625 108.820312 91.832031 M 109.417969 89.585938 C 109.398438 89.617188 109.394531 89.660156 109.394531 89.699219 C 109.386719 90.394531 109.414062 91.089844 109.480469 91.785156 C 109.480469 91.804688 109.484375 91.824219 109.492188 91.839844 C 109.519531 91.882812 109.578125 91.882812 109.625 91.875 C 110.035156 91.835938 110.445312 91.792969 110.851562 91.75 C 111.035156 91.730469 111.082031 91.492188 111.082031 91.3125 C 111.085938 90.875 111.089844 90.441406 111.09375 90.003906 C 111.09375 89.777344 111.105469 89.527344 111.265625 89.367188 C 111.160156 89.285156 111.007812 89.335938 110.878906 89.382812 C 110.496094 89.519531 110.078125 89.566406 109.671875 89.519531 C 109.578125 89.507812 109.464844 89.503906 109.417969 89.585938 Z M 109.417969 89.585938 " fill-opacity="1" fill-rule="nonzero"/><path fill="#004aad" d="M 109.507812 94.703125 C 109.949219 94.652344 110.386719 94.601562 110.828125 94.550781 C 111.050781 94.523438 111.328125 94.523438 111.4375 94.71875 C 111.5 94.832031 111.484375 94.96875 111.460938 95.097656 C 111.335938 95.878906 111.207031 96.660156 111.082031 97.441406 C 111.050781 97.644531 111.003906 97.867188 110.839844 97.988281 C 110.742188 98.054688 110.621094 98.078125 110.503906 98.097656 C 109.996094 98.179688 109.488281 98.261719 108.984375 98.347656 C 108.886719 98.363281 108.78125 98.378906 108.691406 98.339844 C 108.472656 98.25 108.472656 97.945312 108.511719 97.710938 C 108.644531 96.863281 108.78125 96.011719 108.960938 95.171875 C 108.988281 95.054688 109.015625 94.933594 109.097656 94.847656 C 109.203125 94.742188 109.363281 94.71875 109.507812 94.703125 M 109.851562 95.335938 C 109.789062 95.324219 109.722656 95.300781 109.660156 95.300781 C 109.59375 95.304688 109.519531 95.351562 109.519531 95.414062 C 109.492188 96.179688 109.359375 96.941406 109.121094 97.667969 C 109.191406 97.75 109.320312 97.691406 109.417969 97.640625 C 109.679688 97.5 109.996094 97.460938 110.285156 97.53125 C 110.417969 97.5625 110.5 97.390625 110.523438 97.253906 C 110.59375 96.875 110.664062 96.496094 110.734375 96.117188 C 110.773438 95.914062 110.804688 95.6875 110.683594 95.519531 C 110.636719 95.457031 110.726562 95.386719 110.804688 95.359375 C 110.878906 95.332031 110.96875 95.253906 110.914062 95.195312 C 110.582031 95.042969 110.210938 95.398438 109.851562 95.335938 Z M 109.851562 95.335938 " fill-opacity="1" fill-rule="nonzero"/><path fill="#004aad" d="M 108.429688 84.589844 C 108.328125 84.460938 108.40625 84.253906 108.546875 84.164062 C 108.6875 84.078125 108.863281 84.074219 109.027344 84.074219 C 109.71875 84.085938 110.40625 84.152344 111.097656 84.140625 C 111.332031 84.140625 111.648438 84.191406 111.671875 84.425781 C 111.6875 84.554688 111.589844 84.675781 111.46875 84.730469 C 111.347656 84.785156 111.210938 84.785156 111.078125 84.785156 C 110.3125 84.777344 109.546875 84.753906 108.785156 84.714844 C 108.65625 84.707031 108.507812 84.691406 108.429688 84.589844 Z M 108.429688 84.589844 " fill-opacity="1" fill-rule="nonzero"/><path fill="#004aad" d="M 111.449219 81.710938 C 110.761719 81.589844 110.0625 81.539062 109.363281 81.554688 C 109.210938 81.558594 109.09375 81.382812 109.125 81.230469 C 109.15625 81.078125 109.292969 80.96875 109.441406 80.921875 C 109.589844 80.878906 109.746094 80.886719 109.898438 80.898438 C 110.308594 80.921875 110.722656 80.949219 111.128906 81.015625 C 111.328125 81.050781 111.546875 81.105469 111.65625 81.277344 C 111.769531 81.449219 111.648438 81.746094 111.449219 81.710938 Z M 111.449219 81.710938 " fill-opacity="1" fill-rule="nonzero"/><path fill="#004aad" d="M 55.113281 64.03125 C 55.292969 64.050781 55.398438 64.273438 55.363281 64.453125 C 55.324219 64.632812 55.195312 64.777344 55.066406 64.914062 C 52.609375 67.535156 50.152344 70.160156 47.695312 72.78125 C 47.558594 72.929688 47.363281 73.089844 47.175781 73.015625 C 47.023438 72.957031 46.96875 72.757812 47.011719 72.597656 C 47.054688 72.4375 47.171875 72.3125 47.28125 72.191406 C 49.761719 69.542969 52.242188 66.894531 54.722656 64.246094 C 54.828125 64.136719 54.960938 64.011719 55.113281 64.03125 Z M 55.113281 64.03125 " fill-opacity="1" fill-rule="nonzero"/><path fill="#004aad" d="M 48.433594 74.0625 C 48.195312 73.902344 48.378906 73.53125 48.570312 73.316406 C 51.195312 70.433594 53.820312 67.546875 56.445312 64.664062 C 56.625 64.460938 56.9375 64.25 57.136719 64.433594 C 57.332031 64.617188 57.152344 64.941406 56.96875 65.140625 C 54.328125 68.039062 51.6875 70.933594 49.042969 73.828125 C 48.882812 74.003906 48.632812 74.195312 48.433594 74.0625 Z M 48.433594 74.0625 " fill-opacity="1" fill-rule="nonzero"/><path fill="#004aad" d="M 110.648438 73.867188 C 110.550781 73.832031 110.566406 73.695312 110.601562 73.597656 C 110.699219 73.617188 110.6875 73.761719 110.652344 73.851562 Z M 110.648438 73.867188 " fill-opacity="1" fill-rule="nonzero"/><path fill="#004aad" d="M 112.203125 66.382812 C 112.214844 66.40625 112.230469 66.4375 112.222656 66.464844 C 112.21875 66.488281 112.199219 66.507812 112.175781 66.515625 C 111.941406 66.273438 111.675781 66.0625 111.382812 65.898438 C 111.714844 65.898438 112.039062 66.089844 112.203125 66.382812 Z M 112.203125 66.382812 " fill-opacity="1" fill-rule="nonzero"/><path fill="#004aad" d="M 110.460938 95.996094 C 110.40625 95.960938 110.433594 95.855469 110.5 95.855469 C 110.554688 95.894531 110.523438 96 110.457031 96.003906 Z M 110.460938 95.996094 " fill-opacity="1" fill-rule="nonzero"/><path fill="#004aad" d="M 47.601562 69.460938 C 47.507812 69.277344 47.652344 69.066406 47.785156 68.914062 C 48.761719 67.804688 49.734375 66.699219 50.710938 65.589844 C 50.804688 65.484375 50.902344 65.375 51.03125 65.316406 C 51.160156 65.253906 51.328125 65.257812 51.425781 65.363281 C 51.601562 65.546875 51.429688 65.839844 51.261719 66.03125 C 50.601562 66.785156 49.941406 67.535156 49.277344 68.289062 C 48.988281 68.617188 48.699219 68.945312 48.414062 69.273438 C 48.304688 69.398438 48.1875 69.523438 48.035156 69.582031 C 47.882812 69.644531 47.679688 69.605469 47.601562 69.460938 Z M 47.601562 69.460938 " fill-opacity="1" fill-rule="nonzero"/><g fill="#d9d9d9" fill-opacity="1"><g transform="translate(124.240256, 106.830575)"><g><path d="M 15.890625 0 L 6.640625 0 L 6.640625 -51.078125 L 19.84375 -51.078125 L 32.765625 -13.515625 L 33.5 -13.515625 L 46.359375 -51.078125 L 59.25 -51.078125 L 59.25 0 L 49.671875 0 L 49.671875 -33.75 L 48.796875 -33.890625 L 37 0 L 28.578125 0 L 16.765625 -33.890625 L 15.890625 -33.75 Z M 15.890625 0 "/></g></g></g><g fill="#d9d9d9" fill-opacity="1"><g transform="translate(190.155498, 106.830575)"><g><path d="M 40.9375 -51.078125 L 40.9375 -42.578125 L 26.203125 -42.578125 L 26.203125 0 L 16.140625 0 L 16.140625 -42.578125 L 1.390625 -42.578125 L 1.390625 -51.078125 Z M 40.9375 -51.078125 "/></g></g></g><g fill="#d9d9d9" fill-opacity="1"><g transform="translate(232.49215, 106.830575)"><g><path d="M 25.015625 -51.078125 C 33.304688 -51.078125 39.632812 -48.929688 44 -44.640625 C 48.363281 -40.359375 50.546875 -33.988281 50.546875 -25.53125 C 50.546875 -17.101562 48.363281 -10.738281 44 -6.4375 C 39.632812 -2.144531 33.304688 0 25.015625 0 L 6.640625 0 L 6.640625 -51.078125 Z M 24.421875 -8.484375 C 29.679688 -8.484375 33.613281 -9.828125 36.21875 -12.515625 C 38.832031 -15.210938 40.140625 -19.550781 40.140625 -25.53125 C 40.140625 -31.519531 38.832031 -35.859375 36.21875 -38.546875 C 33.613281 -41.234375 29.679688 -42.578125 24.421875 -42.578125 L 16.734375 -42.578125 L 16.734375 -8.484375 Z M 24.421875 -8.484375 "/></g></g></g><g fill="#d9d9d9" fill-opacity="1"><g transform="translate(287.089673, 106.830575)"><g><path d="M 6.640625 0 L 6.640625 -51.078125 L 28.4375 -51.078125 C 31.582031 -51.078125 34.242188 -50.582031 36.421875 -49.59375 C 38.597656 -48.601562 40.242188 -47.191406 41.359375 -45.359375 C 42.484375 -43.535156 43.046875 -41.375 43.046875 -38.875 C 43.046875 -36.625 42.492188 -34.632812 41.390625 -32.90625 C 40.296875 -31.1875 38.726562 -29.800781 36.6875 -28.75 L 36.6875 -28.015625 C 39.894531 -27.179688 42.375 -25.65625 44.125 -23.4375 C 45.875 -21.226562 46.75 -18.515625 46.75 -15.296875 C 46.75 -10.410156 45.273438 -6.640625 42.328125 -3.984375 C 39.378906 -1.328125 35.003906 0 29.203125 0 Z M 26.34375 -30.703125 C 31.039062 -30.703125 33.390625 -32.820312 33.390625 -37.0625 C 33.390625 -39.226562 32.804688 -40.84375 31.640625 -41.90625 C 30.484375 -42.96875 28.71875 -43.5 26.34375 -43.5 L 16.734375 -43.5 L 16.734375 -30.703125 Z M 28.1875 -8 C 33.757812 -8 36.546875 -10.523438 36.546875 -15.578125 C 36.546875 -20.660156 33.757812 -23.203125 28.1875 -23.203125 L 16.734375 -23.203125 L 16.734375 -8 Z M 28.1875 -8 "/></g></g></g></svg>